<svg width="44" height="15" viewBox="0 0 44 15" fill="none" xmlns="http://www.w3.org/2000/svg">
<path d="M14.516 4.176V3.84H18.128C19.008 3.84 19.664 4.044 20.096 4.452C20.536 4.852 20.756 5.388 20.756 6.06V6.336C20.756 7.008 20.536 7.548 20.096 7.956C19.664 8.364 19.008 8.568 18.128 8.568H16.88V10.992C16.88 11.264 16.892 11.428 16.916 11.484C16.94 11.532 17.016 11.564 17.144 11.58L18.044 11.664V12H14.516V11.664L15.176 11.58C15.304 11.564 15.38 11.532 15.404 11.484C15.428 11.428 15.44 11.264 15.44 10.992V4.848C15.44 4.576 15.428 4.416 15.404 4.368C15.38 4.312 15.304 4.276 15.176 4.26L14.516 4.176ZM18.128 4.26H16.88V8.148H18.128C18.48 8.148 18.748 8.008 18.932 7.728C19.124 7.448 19.22 7.064 19.22 6.576V5.82C19.22 5.332 19.124 4.952 18.932 4.68C18.748 4.4 18.48 4.26 18.128 4.26ZM22.701 11.664V12H20.385V11.664L21.045 11.58C21.133 11.564 21.197 11.548 21.237 11.532C21.277 11.508 21.313 11.456 21.345 11.376C21.377 11.296 21.421 11.168 21.477 10.992L23.769 3.84H24.801L27.105 10.992C27.161 11.168 27.205 11.296 27.237 11.376C27.269 11.456 27.305 11.508 27.345 11.532C27.393 11.548 27.457 11.564 27.537 11.58L28.197 11.664V12H24.885V11.664L25.545 11.58C25.673 11.564 25.741 11.532 25.749 11.484C25.765 11.428 25.729 11.264 25.641 10.992L25.185 9.504H22.413L21.945 10.992C21.865 11.264 21.829 11.428 21.837 11.484C21.845 11.532 21.913 11.564 22.041 11.58L22.701 11.664ZM22.557 9.084H25.053L23.817 5.1L22.557 9.084ZM31.9818 12.12C31.2458 12.12 30.6218 11.964 30.1098 11.652C29.5978 11.332 29.2098 10.884 28.9458 10.308C28.6818 9.732 28.5498 9.06 28.5498 8.292V7.536C28.5498 6.768 28.6658 6.1 28.8978 5.532C29.1378 4.956 29.4938 4.512 29.9658 4.2C30.4378 3.88 31.0298 3.72 31.7418 3.72C32.3498 3.72 32.8578 3.84 33.2658 4.08C33.6738 4.312 33.9738 4.624 34.1658 5.016C34.3658 5.4 34.4498 5.82 34.4178 6.276L33.0138 6.624C33.0938 5.824 33.0098 5.212 32.7618 4.788C32.5218 4.356 32.1618 4.14 31.6818 4.14C31.1698 4.14 30.7738 4.356 30.4938 4.788C30.2218 5.22 30.0858 5.936 30.0858 6.936V8.892C30.0858 9.884 30.2418 10.6 30.5538 11.04C30.8658 11.48 31.3418 11.7 31.9818 11.7C32.2458 11.7 32.4898 11.652 32.7138 11.556C32.9458 11.46 33.1378 11.296 33.2898 11.064C33.4498 10.824 33.5498 10.488 33.5898 10.056L34.4538 10.284C34.3418 10.732 34.1618 11.092 33.9138 11.364C33.6658 11.636 33.3738 11.832 33.0378 11.952C32.7098 12.064 32.3578 12.12 31.9818 12.12ZM35.062 3.84H41.662V5.904H41.326L40.942 4.572C40.918 4.468 40.89 4.396 40.858 4.356C40.834 4.308 40.782 4.28 40.702 4.272C40.622 4.264 40.486 4.26 40.294 4.26H39.082V10.992C39.082 11.264 39.094 11.428 39.118 11.484C39.142 11.532 39.218 11.564 39.346 11.58L40.006 11.664V12H36.718V11.664L37.378 11.58C37.506 11.564 37.582 11.532 37.606 11.484C37.63 11.428 37.642 11.264 37.642 10.992V4.26H36.43C36.246 4.26 36.11 4.264 36.022 4.272C35.942 4.28 35.89 4.308 35.866 4.356C35.842 4.396 35.814 4.468 35.782 4.572L35.398 5.904H35.062V3.84Z" fill="#123250"/>
<path d="M0.516 4.176V3.84H3.804V4.176L3.144 4.26C3.016 4.276 2.94 4.312 2.916 4.368C2.892 4.416 2.88 4.576 2.88 4.848V10.992C2.88 11.264 2.892 11.428 2.916 11.484C2.94 11.532 3.016 11.564 3.144 11.58L3.804 11.664V12H0.516V11.664L1.176 11.58C1.304 11.564 1.38 11.532 1.404 11.484C1.428 11.428 1.44 11.264 1.44 10.992V4.848C1.44 4.576 1.428 4.416 1.404 4.368C1.38 4.312 1.304 4.276 1.176 4.26L0.516 4.176Z" fill="#123250"/>
<rect x="6.66266" y="12.0298" width="1.62259" height="8.20451" transform="rotate(179.784 6.66266 12.0298)" fill="#123250"/>
<rect x="12.9898" y="12" width="1.62259" height="8.20451" transform="rotate(179.784 12.9898 12)" fill="#123250"/>
<rect x="9.73358" y="12.0123" width="1.62259" height="8.20451" transform="rotate(179.784 9.73358 12.0123)" fill="#123250"/>
<circle cx="42.5" cy="11" r="1" fill="#37C391"/>
</svg>
