<svg width="51" height="26" viewBox="0 0 51 26" fill="none" xmlns="http://www.w3.org/2000/svg">
<path d="M1.532 20.063C1.47133 20.063 1.399 20.0513 1.315 20.028C1.231 20.0093 1.189 19.958 1.189 19.874C1.189 19.8413 1.196 19.804 1.21 19.762C1.224 19.72 1.238 19.6827 1.252 19.65C1.29867 19.5287 1.34767 19.405 1.399 19.279C1.45033 19.153 1.504 19.0247 1.56 18.894C1.49933 18.964 1.441 19.0293 1.385 19.09C1.33367 19.146 1.29633 19.188 1.273 19.216C1.259 19.2347 1.24733 19.244 1.238 19.244C1.22867 19.244 1.224 19.2323 1.224 19.209C1.224 19.1717 1.23567 19.1367 1.259 19.104C1.32433 19.02 1.399 18.9313 1.483 18.838C1.567 18.7447 1.64867 18.6467 1.728 18.544C1.924 18.1333 2.14333 17.7367 2.386 17.354C2.62867 16.9667 2.90167 16.6237 3.205 16.325C3.29833 16.2363 3.40333 16.1453 3.52 16.052C3.63667 15.9587 3.76033 15.8793 3.891 15.814C4.02633 15.7487 4.15933 15.716 4.29 15.716C4.36 15.716 4.423 15.7347 4.479 15.772C4.53967 15.8093 4.57233 15.8677 4.577 15.947V16.15C4.577 16.1687 4.563 16.178 4.535 16.178C4.521 16.178 4.514 16.1733 4.514 16.164C4.514 16.0893 4.48133 16.0403 4.416 16.017C4.35067 15.989 4.28533 15.975 4.22 15.975C3.96333 15.975 3.73233 16.0427 3.527 16.178C3.32167 16.3087 3.13967 16.4813 2.981 16.696C2.82233 16.906 2.68 17.1393 2.554 17.396C2.428 17.648 2.31367 17.8977 2.211 18.145C2.113 18.3877 2.01967 18.6047 1.931 18.796C1.931 18.796 1.931 18.8007 1.931 18.81C1.931 18.8193 1.93333 18.824 1.938 18.824C1.94267 18.824 1.98 18.789 2.05 18.719C2.12467 18.6443 2.21567 18.558 2.323 18.46C2.435 18.362 2.55167 18.278 2.673 18.208C2.79433 18.1333 2.90633 18.096 3.009 18.096C3.06033 18.096 3.093 18.1147 3.107 18.152C3.121 18.1847 3.128 18.222 3.128 18.264V18.327C3.10467 18.4997 3.044 18.6863 2.946 18.887C2.85267 19.0877 2.73133 19.279 2.582 19.461C2.43733 19.6383 2.274 19.783 2.092 19.895C1.91467 20.007 1.728 20.063 1.532 20.063ZM1.644 19.944C1.71867 19.944 1.798 19.916 1.882 19.86C1.97067 19.7993 2.03833 19.7457 2.085 19.699C2.141 19.6477 2.20867 19.5683 2.288 19.461C2.36733 19.349 2.44433 19.2277 2.519 19.097C2.59367 18.9663 2.65667 18.8403 2.708 18.719C2.75933 18.5977 2.785 18.4997 2.785 18.425C2.785 18.4017 2.78033 18.3807 2.771 18.362C2.76167 18.3433 2.74533 18.334 2.722 18.334C2.68 18.334 2.624 18.3597 2.554 18.411C2.48867 18.4623 2.41633 18.5253 2.337 18.6C2.26233 18.67 2.19233 18.74 2.127 18.81C2.06633 18.8753 2.022 18.9243 1.994 18.957C1.94267 19.013 1.87733 19.0947 1.798 19.202C1.71867 19.3093 1.64633 19.419 1.581 19.531C1.52033 19.6383 1.49 19.7293 1.49 19.804C1.49 19.8973 1.54133 19.944 1.644 19.944ZM2.39688 22.45C2.21955 22.45 2.04922 22.408 1.88588 22.324C1.71788 22.2447 1.59422 22.121 1.51488 21.953C1.48688 21.8923 1.46822 21.827 1.45888 21.757C1.44955 21.6917 1.44488 21.6263 1.44488 21.561V21.484C1.44488 21.4467 1.44955 21.4117 1.45888 21.379C1.46822 21.351 1.49155 21.337 1.52888 21.337C1.53822 21.337 1.54288 21.3417 1.54288 21.351C1.54288 21.379 1.54055 21.407 1.53588 21.435C1.53122 21.463 1.52888 21.4933 1.52888 21.526C1.52888 21.7407 1.59888 21.904 1.73888 22.016C1.87422 22.128 2.04455 22.184 2.24988 22.184C2.33388 22.184 2.42022 22.1747 2.50888 22.156C2.59755 22.1373 2.68155 22.1117 2.76088 22.079C3.05488 21.953 3.30922 21.7733 3.52388 21.54C3.74322 21.3113 3.93455 21.0523 4.09788 20.763C4.26122 20.4737 4.40822 20.1797 4.53888 19.881C4.61355 19.7037 4.67888 19.531 4.73488 19.363C4.79555 19.195 4.84922 19.0433 4.89588 18.908C4.84922 18.9733 4.78855 19.0527 4.71388 19.146C4.63922 19.2393 4.56455 19.3303 4.48988 19.419C4.41522 19.503 4.34988 19.5707 4.29388 19.622C4.17722 19.734 4.05122 19.8297 3.91588 19.909C3.78522 19.9837 3.64988 20.021 3.50988 20.021C3.46322 20.021 3.42355 20.0117 3.39088 19.993C3.35822 19.9743 3.34188 19.9393 3.34188 19.888C3.34188 19.8227 3.35822 19.7457 3.39088 19.657C3.42822 19.5683 3.46788 19.4797 3.50988 19.391C3.55188 19.3023 3.58688 19.23 3.61488 19.174C3.67088 19.0667 3.72455 18.9593 3.77588 18.852C3.82722 18.7447 3.87155 18.6537 3.90888 18.579C3.94622 18.509 3.96488 18.4623 3.96488 18.439C3.96488 18.4017 3.93688 18.4017 3.88088 18.439C3.82955 18.4763 3.78055 18.5137 3.73388 18.551C3.63122 18.649 3.52388 18.7657 3.41188 18.901C3.29988 19.0317 3.21355 19.1367 3.15288 19.216C3.13888 19.2347 3.12722 19.244 3.11788 19.244C3.10855 19.244 3.10388 19.2323 3.10388 19.209C3.10388 19.1717 3.11555 19.1367 3.13888 19.104C3.20422 19.0107 3.28122 18.908 3.36988 18.796C3.45855 18.684 3.54955 18.5767 3.64288 18.474C3.73155 18.3807 3.82255 18.2897 3.91588 18.201C4.00922 18.1123 4.12822 18.068 4.27288 18.068C4.37088 18.068 4.41988 18.1053 4.41988 18.18C4.41988 18.2453 4.39188 18.32 4.33588 18.404C4.30322 18.4553 4.25188 18.5417 4.18188 18.663C4.11188 18.7843 4.03955 18.9173 3.96488 19.062C3.89488 19.202 3.83422 19.3327 3.78288 19.454C3.73155 19.5753 3.70588 19.664 3.70588 19.72C3.70588 19.7853 3.73855 19.818 3.80388 19.818C3.85522 19.818 3.91822 19.7923 3.99288 19.741C4.06755 19.685 4.14455 19.6197 4.22388 19.545C4.35922 19.4143 4.48288 19.2697 4.59488 19.111C4.71155 18.9523 4.81188 18.8007 4.89588 18.656C4.90988 18.6327 4.93322 18.5907 4.96588 18.53C5.00322 18.4693 5.04055 18.411 5.07788 18.355C5.11988 18.299 5.15255 18.2663 5.17588 18.257C5.19922 18.2477 5.24588 18.222 5.31588 18.18C5.38588 18.138 5.45588 18.11 5.52588 18.096C5.59122 18.082 5.64022 18.075 5.67288 18.075C5.72422 18.075 5.74988 18.089 5.74988 18.117C5.74988 18.1543 5.72888 18.173 5.68688 18.173C5.63555 18.173 5.58888 18.187 5.54688 18.215C5.50488 18.2383 5.47222 18.2687 5.44888 18.306C5.40688 18.3667 5.34622 18.4763 5.26688 18.635C5.19222 18.7937 5.10822 18.978 5.01488 19.188C4.92622 19.3933 4.83755 19.6033 4.74888 19.818C4.66022 20.028 4.57855 20.2217 4.50388 20.399C4.39188 20.665 4.26355 20.924 4.11888 21.176C3.97422 21.4327 3.80388 21.6613 3.60788 21.862C3.41655 22.0673 3.18788 22.2283 2.92188 22.345C2.76322 22.415 2.58822 22.45 2.39688 22.45Z" fill="white"/>
<path d="M12.88 20.936H13.216V23H7.516V22.664L8.176 22.58C8.304 22.564 8.38 22.532 8.404 22.484C8.428 22.428 8.44 22.264 8.44 21.992V15.848C8.44 15.576 8.428 15.416 8.404 15.368C8.38 15.312 8.304 15.276 8.176 15.26L7.516 15.176V14.84H10.804V15.176L10.144 15.26C10.016 15.276 9.94 15.312 9.916 15.368C9.892 15.416 9.88 15.576 9.88 15.848V22.58H11.848C12.04 22.58 12.176 22.576 12.256 22.568C12.336 22.552 12.388 22.524 12.412 22.484C12.444 22.436 12.472 22.364 12.496 22.268L12.88 20.936ZM13.9027 15.176V14.84H17.2147C17.8547 14.84 18.3627 14.928 18.7387 15.104C19.1147 15.28 19.3827 15.512 19.5427 15.8C19.7107 16.088 19.7947 16.408 19.7947 16.76V17.084C19.7947 17.5 19.6627 17.86 19.3987 18.164C19.1427 18.46 18.7667 18.672 18.2707 18.8C18.8787 18.904 19.3427 19.12 19.6627 19.448C19.9907 19.776 20.1547 20.188 20.1547 20.684V21.02C20.1547 21.38 20.0707 21.712 19.9027 22.016C19.7347 22.312 19.4547 22.552 19.0627 22.736C18.6787 22.912 18.1627 23 17.5147 23H13.9027V22.664L14.5627 22.58C14.6907 22.564 14.7667 22.532 14.7907 22.484C14.8147 22.428 14.8267 22.264 14.8267 21.992V15.848C14.8267 15.576 14.8147 15.416 14.7907 15.368C14.7667 15.312 14.6907 15.276 14.5627 15.26L13.9027 15.176ZM17.2147 15.26H16.2667V18.62H17.2147C17.5587 18.62 17.8187 18.504 17.9947 18.272C18.1707 18.032 18.2587 17.656 18.2587 17.144V16.76C18.2587 16.24 18.1707 15.86 17.9947 15.62C17.8187 15.38 17.5587 15.26 17.2147 15.26ZM17.5147 19.04H16.2667V22.58H17.5147C17.8747 22.58 18.1467 22.46 18.3307 22.22C18.5227 21.972 18.6187 21.572 18.6187 21.02V20.624C18.6187 19.568 18.2507 19.04 17.5147 19.04Z" fill="white"/>
<path d="M32.516 15.176V14.84H35.828C36.468 14.84 36.976 14.928 37.352 15.104C37.728 15.28 37.996 15.512 38.156 15.8C38.324 16.088 38.408 16.408 38.408 16.76V17.084C38.408 17.5 38.276 17.86 38.012 18.164C37.756 18.46 37.38 18.672 36.884 18.8C37.492 18.904 37.956 19.12 38.276 19.448C38.604 19.776 38.768 20.188 38.768 20.684V21.02C38.768 21.38 38.684 21.712 38.516 22.016C38.348 22.312 38.068 22.552 37.676 22.736C37.292 22.912 36.776 23 36.128 23H32.516V22.664L33.176 22.58C33.304 22.564 33.38 22.532 33.404 22.484C33.428 22.428 33.44 22.264 33.44 21.992V15.848C33.44 15.576 33.428 15.416 33.404 15.368C33.38 15.312 33.304 15.276 33.176 15.26L32.516 15.176ZM35.828 15.26H34.88V18.62H35.828C36.172 18.62 36.432 18.504 36.608 18.272C36.784 18.032 36.872 17.656 36.872 17.144V16.76C36.872 16.24 36.784 15.86 36.608 15.62C36.432 15.38 36.172 15.26 35.828 15.26ZM36.128 19.04H34.88V22.58H36.128C36.488 22.58 36.76 22.46 36.944 22.22C37.136 21.972 37.232 21.572 37.232 21.02V20.624C37.232 19.568 36.864 19.04 36.128 19.04ZM46.8133 23L44.8453 16.448L42.9853 23H41.9413L40.2733 15.848C40.2333 15.664 40.2013 15.536 40.1773 15.464C40.1533 15.384 40.1173 15.332 40.0693 15.308C40.0293 15.284 39.9653 15.268 39.8773 15.26L39.2173 15.176V14.84H42.5413V15.176L41.8813 15.26C41.7533 15.276 41.6853 15.308 41.6773 15.356C41.6693 15.404 41.6933 15.568 41.7493 15.848L42.9973 21.44L44.8333 14.84H45.8293L47.7853 21.32L49.0573 15.848C49.1213 15.568 49.1453 15.404 49.1293 15.356C49.1133 15.308 49.0453 15.276 48.9253 15.26L48.2653 15.176V14.84H50.5933V15.176L49.9333 15.26C49.8453 15.268 49.7813 15.284 49.7413 15.308C49.7013 15.332 49.6653 15.384 49.6333 15.464C49.6093 15.536 49.5773 15.664 49.5373 15.848L47.8693 23H46.8133Z" fill="white"/>
<rect x="22.0124" y="16.6281" width="1.6281" height="8.15861" transform="rotate(-89.8352 22.0124 16.6281)" fill="#123250"/>
<rect x="22" y="22.9768" width="1.6281" height="8.15861" transform="rotate(-89.8352 22 22.9768)" fill="#123250"/>
<rect x="22.0094" y="19.7095" width="1.6281" height="8.15861" transform="rotate(-89.8352 22.0094 19.7095)" fill="#123250"/>
<path d="M14.516 4.176V3.84H18.128C19.008 3.84 19.664 4.044 20.096 4.452C20.536 4.852 20.756 5.388 20.756 6.06V6.336C20.756 7.008 20.536 7.548 20.096 7.956C19.664 8.364 19.008 8.568 18.128 8.568H16.88V10.992C16.88 11.264 16.892 11.428 16.916 11.484C16.94 11.532 17.016 11.564 17.144 11.58L18.044 11.664V12H14.516V11.664L15.176 11.58C15.304 11.564 15.38 11.532 15.404 11.484C15.428 11.428 15.44 11.264 15.44 10.992V4.848C15.44 4.576 15.428 4.416 15.404 4.368C15.38 4.312 15.304 4.276 15.176 4.26L14.516 4.176ZM18.128 4.26H16.88V8.148H18.128C18.48 8.148 18.748 8.008 18.932 7.728C19.124 7.448 19.22 7.064 19.22 6.576V5.82C19.22 5.332 19.124 4.952 18.932 4.68C18.748 4.4 18.48 4.26 18.128 4.26ZM22.701 11.664V12H20.385V11.664L21.045 11.58C21.133 11.564 21.197 11.548 21.237 11.532C21.277 11.508 21.313 11.456 21.345 11.376C21.377 11.296 21.421 11.168 21.477 10.992L23.769 3.84H24.801L27.105 10.992C27.161 11.168 27.205 11.296 27.237 11.376C27.269 11.456 27.305 11.508 27.345 11.532C27.393 11.548 27.457 11.564 27.537 11.58L28.197 11.664V12H24.885V11.664L25.545 11.58C25.673 11.564 25.741 11.532 25.749 11.484C25.765 11.428 25.729 11.264 25.641 10.992L25.185 9.504H22.413L21.945 10.992C21.865 11.264 21.829 11.428 21.837 11.484C21.845 11.532 21.913 11.564 22.041 11.58L22.701 11.664ZM22.557 9.084H25.053L23.817 5.1L22.557 9.084ZM31.9818 12.12C31.2458 12.12 30.6218 11.964 30.1098 11.652C29.5978 11.332 29.2098 10.884 28.9458 10.308C28.6818 9.732 28.5498 9.06 28.5498 8.292V7.536C28.5498 6.768 28.6658 6.1 28.8978 5.532C29.1378 4.956 29.4938 4.512 29.9658 4.2C30.4378 3.88 31.0298 3.72 31.7418 3.72C32.3498 3.72 32.8578 3.84 33.2658 4.08C33.6738 4.312 33.9738 4.624 34.1658 5.016C34.3658 5.4 34.4498 5.82 34.4178 6.276L33.0138 6.624C33.0938 5.824 33.0098 5.212 32.7618 4.788C32.5218 4.356 32.1618 4.14 31.6818 4.14C31.1698 4.14 30.7738 4.356 30.4938 4.788C30.2218 5.22 30.0858 5.936 30.0858 6.936V8.892C30.0858 9.884 30.2418 10.6 30.5538 11.04C30.8658 11.48 31.3418 11.7 31.9818 11.7C32.2458 11.7 32.4898 11.652 32.7138 11.556C32.9458 11.46 33.1378 11.296 33.2898 11.064C33.4498 10.824 33.5498 10.488 33.5898 10.056L34.4538 10.284C34.3418 10.732 34.1618 11.092 33.9138 11.364C33.6658 11.636 33.3738 11.832 33.0378 11.952C32.7098 12.064 32.3578 12.12 31.9818 12.12ZM35.062 3.84H41.662V5.904H41.326L40.942 4.572C40.918 4.468 40.89 4.396 40.858 4.356C40.834 4.308 40.782 4.28 40.702 4.272C40.622 4.264 40.486 4.26 40.294 4.26H39.082V10.992C39.082 11.264 39.094 11.428 39.118 11.484C39.142 11.532 39.218 11.564 39.346 11.58L40.006 11.664V12H36.718V11.664L37.378 11.58C37.506 11.564 37.582 11.532 37.606 11.484C37.63 11.428 37.642 11.264 37.642 10.992V4.26H36.43C36.246 4.26 36.11 4.264 36.022 4.272C35.942 4.28 35.89 4.308 35.866 4.356C35.842 4.396 35.814 4.468 35.782 4.572L35.398 5.904H35.062V3.84Z" fill="white"/>
<path d="M0.516 4.176V3.84H3.804V4.176L3.144 4.26C3.016 4.276 2.94 4.312 2.916 4.368C2.892 4.416 2.88 4.576 2.88 4.848V10.992C2.88 11.264 2.892 11.428 2.916 11.484C2.94 11.532 3.016 11.564 3.144 11.58L3.804 11.664V12H0.516V11.664L1.176 11.58C1.304 11.564 1.38 11.532 1.404 11.484C1.428 11.428 1.44 11.264 1.44 10.992V4.848C1.44 4.576 1.428 4.416 1.404 4.368C1.38 4.312 1.304 4.276 1.176 4.26L0.516 4.176Z" fill="white"/>
<rect x="6.66266" y="12.0298" width="1.62259" height="8.20451" transform="rotate(179.784 6.66266 12.0298)" fill="#123250"/>
<rect x="12.9898" y="12" width="1.62259" height="8.20451" transform="rotate(179.784 12.9898 12)" fill="#123250"/>
<rect x="9.73358" y="12.0123" width="1.62259" height="8.20451" transform="rotate(179.784 9.73358 12.0123)" fill="#123250"/>
<circle cx="42.5" cy="11" r="1" fill="#37C391"/>
</svg>
